<svg xmlns="http://www.w3.org/2000/svg" viewBox="0 0 512 512" fill="none">
  <defs>
    <linearGradient id="bg" x1="0" y1="0" x2="1" y2="1">
      <stop offset="0" stop-color="#0c1018"/>
      <stop offset="1" stop-color="#06080c"/>
    </linearGradient>
    <linearGradient id="liq" x1="0" y1="0" x2="0" y2="1">
      <stop offset="0" stop-color="#2dd4bf"/>
      <stop offset="1" stop-color="#6f7bf0"/>
    </linearGradient>
    <clipPath id="flask">
      <path d="M228 116 L228 214 L150 388 Q142 410 166 410 L346 410 Q370 410 362 388 L284 214 L284 116 Z"/>
    </clipPath>
  </defs>
  <rect width="512" height="512" rx="116" fill="url(#bg)"/>
  <circle cx="256" cy="252" r="184" fill="#2dd4bf" opacity="0.13"/>
  <g clip-path="url(#flask)">
    <rect x="120" y="298" width="272" height="160" fill="url(#liq)"/>
    <circle cx="212" cy="346" r="13" fill="#dffaf4" opacity="0.55"/>
    <circle cx="272" cy="376" r="9"  fill="#dffaf4" opacity="0.45"/>
    <circle cx="242" cy="322" r="7"  fill="#dffaf4" opacity="0.50"/>
  </g>
  <path d="M228 116 L228 214 L150 388 Q142 410 166 410 L346 410 Q370 410 362 388 L284 214 L284 116"
        stroke="#eef2f6" stroke-width="14" stroke-linejoin="round" stroke-linecap="round"/>
  <rect x="214" y="100" width="84" height="22" rx="10" fill="#eef2f6"/>
</svg>
